<svg xmlns="http://www.w3.org/2000/svg" width="40" height="40" viewBox="0 0 40 40">
  <defs>
    <linearGradient id="rainbow" x1="0" y1="1" x2="1" y2="0">
      <stop offset="0" stop-color="#e23b3b"/>
      <stop offset="0.16" stop-color="#f08c28"/>
      <stop offset="0.33" stop-color="#f2c230"/>
      <stop offset="0.5" stop-color="#3fb36b"/>
      <stop offset="0.66" stop-color="#2ea7c9"/>
      <stop offset="0.83" stop-color="#3d5fd9"/>
      <stop offset="1" stop-color="#8a45c4"/>
    </linearGradient>
  </defs>
  <!-- 身体 -->
  <path fill="url(#rainbow)" d="M14 9c7-3 16 0 19 7 2 5 1 12-4 16-6 5-16 4-20-2-3-4-3-9 0-13 1-2 3-5 5-8z"/>
  <!-- 翅膀 -->
  <path fill="url(#rainbow)" d="M7 16c4-1 8 1 10 4 1 2 1 5-1 7-3 3-8 3-11 0-2-2-2-6 0-8 0-1 1-2 2-3z"/>
  <!-- 头带飘带 -->
  <path fill="#2f6bff" d="M9 6c3 2 4 2 6 1-3 1-4 2-6 1zM4 9c3 1 5 0 7-1-3 0-5 1-7 1z"/>
  <!-- 头带 -->
  <path fill="#2f6bff" d="M15 11c5-3 12-2 17 2-2 3-6 5-11 5-4 0-7-1-9-3 1-2 2-3 3-4z"/>
  <!-- 头带上的星星 -->
  <path fill="#fff" d="M20 13l1 2 2 .3-1.6 1.4.5 2-1.9-1.2-1.9 1.2.5-2-1.6-1.4 2-.3z"/>
  <!-- 眼睛 -->
  <path fill="#fff" d="M28 13a4 4 0 1 1 0 8 4 4 0 0 1 0-8z"/>
  <path fill="#1b1b1b" d="M29.5 15a2.4 2.4 0 1 1 0 4.8 2.4 2.4 0 0 1 0-4.8z"/>
  <path fill="#fff" d="M30.4 16.1a.8.8 0 1 1 0 1.6.8.8 0 0 1 0-1.6z"/>
  <!-- 眉毛 -->
  <path fill="#1b1b1b" d="M27 12l6 2-.4 1.2-6-2z"/>
  <!-- 喙 -->
  <path fill="#1b1b1b" d="M36 17l4 1.4-4 1.2z"/>
</svg>
